<?xml version="1.0" standalone="no"?>
<!DOCTYPE svg PUBLIC "-//W3C//DTD SVG 20010904//EN"
 "http://www.w3.org/TR/2001/REC-SVG-20010904/DTD/svg10.dtd">
<svg version="1.0" xmlns="http://www.w3.org/2000/svg"
 width="512.000000pt" height="512.000000pt" viewBox="0 0 512.000000 512.000000"
 preserveAspectRatio="xMidYMid meet">

<g transform="translate(0.000000,512.000000) scale(0.100000,-0.100000)"
fill="#000000" stroke="none">
<path d="M520 3250 l0 -900 51 0 c37 0 50 -4 47 -12 -37 -101 -99 -301 -94
-306 4 -3 766 -252 1694 -553 1167 -379 1689 -544 1693 -536 12 21 560 1709
557 1713 -2 1 -87 32 -188 67 l-185 64 -3 681 -2 682 -1785 0 -1785 0 0 -900z
m3032 727 c15 -184 167 -334 359 -354 l59 -6 -2 -376 -3 -376 -70 -6 c-89 -8
-152 -38 -226 -106 -73 -68 -109 -139 -117 -228 l-5 -65 -1248 0 -1248 0 -7
58 c-11 97 -41 161 -106 229 -70 72 -134 104 -228 112 l-65 6 -3 378 -2 377
34 0 c87 0 239 75 291 144 38 51 64 117 76 200 l11 76 1248 0 1247 0 5 -63z
m437 -1651 c27 -43 76 -80 146 -111 30 -14 55 -30 55 -37 0 -7 -53 -171 -117
-365 -98 -293 -120 -350 -133 -343 -56 29 -202 18 -289 -23 -69 -32 -142 -110
-176 -189 -16 -38 -34 -68 -40 -68 -19 0 -2328 756 -2358 772 -12 6 -16 15
-11 26 38 90 21 225 -44 355 -6 11 716 9 723 -3 4 -6 115 -10 301 -10 245 0
300 -3 324 -15 17 -9 30 -23 30 -31 0 -27 -45 -164 -53 -164 -13 0 -55 51 -81
96 l-22 39 -64 -3 c-35 -1 -68 -6 -73 -11 -24 -24 76 -178 143 -222 l48 -31
-14 -40 c-8 -22 -14 -45 -14 -50 0 -5 25 -21 56 -35 62 -28 67 -26 93 33 l16
37 95 1 c76 2 103 6 137 24 57 30 93 92 93 161 0 69 -19 110 -70 154 -30 25
-38 37 -26 37 9 0 14 5 11 10 -4 7 68 10 209 10 119 0 216 -3 216 -8 0 -4 35
-4 78 0 124 11 732 10 732 -2 0 -5 7 -10 15 -10 14 0 13 3 -1 25 -16 25 -16
25 14 25 24 0 35 -7 51 -34z m-1419 -116 c26 -26 26 -80 0 -108 -23 -25 -86
-32 -77 -9 3 7 13 41 22 75 10 34 22 62 26 62 5 0 18 -9 29 -20z"/>
<path d="M2232 3748 c-7 -7 -12 -33 -12 -59 0 -46 -1 -47 -37 -54 -124 -23
-207 -113 -207 -225 0 -103 56 -172 177 -215 l62 -23 3 -91 c2 -55 -1 -91 -7
-91 -5 0 -37 25 -69 55 -33 30 -67 55 -77 55 -22 0 -105 -58 -105 -73 0 -20
101 -113 149 -137 25 -12 63 -28 85 -34 40 -12 41 -13 41 -57 0 -63 7 -69 79
-69 69 0 76 6 76 73 0 15 6 29 13 31 117 32 134 40 177 85 85 87 93 211 19
296 -33 37 -112 79 -171 90 l-38 7 0 79 c0 44 4 79 9 79 5 0 23 -12 40 -26 17
-14 38 -24 45 -21 24 9 116 78 116 87 0 34 -102 106 -187 131 -43 12 -43 12
-43 60 0 33 -4 49 -16 53 -27 10 -110 6 -122 -6z m-12 -345 c0 -65 0 -66 -20
-48 -24 22 -26 72 -3 97 9 10 18 18 20 18 1 0 3 -30 3 -67z m208 -278 c16 -21
19 -32 12 -56 -10 -34 -28 -59 -41 -59 -5 0 -9 32 -9 70 0 39 4 70 9 70 5 0
19 -11 29 -25z"/>
</g>
</svg>
