<?xml version="1.0" standalone="no"?>
<!DOCTYPE svg PUBLIC "-//W3C//DTD SVG 20010904//EN"
 "http://www.w3.org/TR/2001/REC-SVG-20010904/DTD/svg10.dtd">
<svg version="1.0" xmlns="http://www.w3.org/2000/svg"
 width="320.000000pt" height="320.000000pt" viewBox="0 0 320.000000 320.000000"
 preserveAspectRatio="xMidYMid meet">

<g transform="translate(0.000000,320.000000) scale(0.100000,-0.100000)"
fill="#000000" stroke="none">
<path d="M1005 2378 c-46 -25 -45 -5 -45 -725 l0 -683 -39 0 c-39 0 -68 -20
-56 -40 4 -6 75 -10 196 -10 l190 0 -3 23 c-3 20 -9 22 -70 25 l-68 3 -2 582
c-3 574 -3 582 -23 582 -20 0 -20 -8 -23 -582 l-2 -583 -25 0 -25 0 0 679 c0
579 2 680 14 684 23 9 35 -15 38 -78 l3 -60 143 -3 142 -3 0 -49 0 -50 -36 0
c-27 0 -44 -8 -68 -32 l-33 -33 -6 -170 c-8 -186 0 -409 15 -438 5 -10 24 -27
41 -37 30 -19 54 -20 455 -20 464 0 466 0 497 60 22 43 22 567 0 610 -17 33
-61 60 -100 60 -23 0 -25 3 -25 50 l0 49 118 3 c109 3 117 4 117 23 0 20 -8
20 -607 23 l-608 2 0 40 c0 51 -16 85 -47 99 -29 13 -33 13 -58 -1z m1037
-260 l3 -73 51 -5 c88 -9 84 6 84 -311 0 -266 -1 -280 -20 -299 -19 -19 -33
-20 -439 -20 -397 0 -420 1 -442 19 l-24 19 0 275 c0 256 1 276 19 296 13 14
31 21 57 21 65 0 69 4 69 81 l0 69 320 0 319 0 3 -72z"/>
<path d="M1453 2074 c-3 -9 0 -20 8 -25 8 -5 125 -9 260 -9 204 0 249 3 259
15 26 32 1 35 -261 35 -229 0 -260 -2 -266 -16z"/>
<path d="M1446 1851 c-95 -95 -109 -121 -65 -121 17 0 19 -7 19 -78 0 -47 5
-83 12 -90 8 -8 53 -12 134 -12 152 0 154 2 154 106 0 67 2 74 20 74 40 0 19
38 -74 128 -51 51 -95 92 -97 92 -3 0 -49 -45 -103 -99z m157 -19 l48 -49 -3
-89 -3 -89 -35 0 c-34 0 -35 1 -38 43 -6 76 -52 67 -52 -10 0 -37 -1 -38 -35
-38 l-35 0 0 92 0 92 47 48 c26 26 50 48 53 48 3 0 27 -22 53 -48z"/>
<path d="M1800 1885 c-22 -27 0 -35 91 -35 73 0 91 3 96 16 9 25 -16 34 -98
34 -55 0 -80 -4 -89 -15z"/>
<path d="M1796 1741 c-4 -5 -3 -16 0 -25 5 -14 27 -16 144 -16 140 0 155 4
142 38 -5 14 -277 18 -286 3z"/>
<path d="M1795 1590 c-4 -6 -1 -17 5 -25 10 -11 37 -15 115 -15 78 0 105 4
115 15 23 28 0 35 -115 35 -68 0 -116 -4 -120 -10z"/>
<path d="M1360 955 c-24 -29 0 -35 140 -35 108 0 139 3 143 14 11 29 -17 36
-144 36 -99 0 -129 -3 -139 -15z"/>
<path d="M1752 958 c-19 -23 2 -40 44 -36 31 2 39 7 39 23 0 16 -8 21 -36 23
-21 2 -40 -2 -47 -10z"/>
<path d="M1901 961 c-8 -5 -11 -16 -8 -25 6 -15 31 -16 219 -14 205 3 213 4
213 23 0 19 -7 20 -205 22 -113 2 -211 -1 -219 -6z"/>
</g>
</svg>
